<svg id="Capa_1" enable-background="new 0 0 512 512" height="512" viewBox="0 0 512 512" width="512" xmlns="http://www.w3.org/2000/svg" xmlns:xlink="http://www.w3.org/1999/xlink"><linearGradient id="SVGID_1_" gradientUnits="userSpaceOnUse" x1="248.5" x2="248.5" y1="496" y2="170.495"><stop offset="0" stop-color="#fd3a84"/><stop offset="1" stop-color="#ffa68d"/></linearGradient><linearGradient id="SVGID_2_" gradientUnits="userSpaceOnUse" x1="286.5" x2="286.5" y1="496" y2="16"><stop offset="0" stop-color="#ffc2cc"/><stop offset="1" stop-color="#fff2f4"/></linearGradient><g><g><g><path d="m391 271c-23.65 0-45.256 8.152-62.831 21.4-11.129-55.467-59.674-96.4-117.169-96.4-10.129 0-20.114 1.835-30 4.495l-15.158-30-14.842 30c-9.886-2.661-19.871-4.495-30-4.495-66.167 0-121 53.833-121 120 0 66.108 67.709 180 136 180 10.371 0 20.435-2.021 30-6.006 9.565 3.984 19.629 6.006 30 6.006 33.801 0 70.45-28.502 99.756-76.43 16.611 36.139 52.937 61.43 95.244 61.43 57.891 0 106-47.109 106-105s-48.109-105-106-105z" fill="url(#SVGID_1_)"/></g></g><g><g><path d="m286 16c-54.053 0-100.448 32.131-121.992 78.116-18.73-28.875-51.105-48.116-88.008-48.116-8.291 0-15 6.709-15 15s6.709 15 15 15c41.353 0 75 33.647 75 75v49.495c5.024 1.353 10.073 2.552 15 4.587 4.927-2.034 9.976-3.234 15-4.587v-36.011c67.315-7.573 120-64.177 120-133.484 0-8.291-6.709-15-15-15zm105 240c-66.167 0-120 53.833-120 120s53.833 120 120 120 121-53.833 121-120-54.833-120-121-120zm45 120c-8.284 0-15-6.716-15-15s6.716-15 15-15 15 6.716 15 15-6.716 15-15 15z" fill="url(#SVGID_2_)"/></g></g></g></svg>