<svg xmlns="http://www.w3.org/2000/svg" width="32.607" height="31.6" viewBox="0 0 32.607 31.6">
  <path id="ic_settings" d="M32.06,20.755a9.58,9.58,0,0,0,.083-1.58c0-.553-.083-1.027-.083-1.58l3.5-2.607a.712.712,0,0,0,.167-1.027L32.393,8.51a.825.825,0,0,0-1-.316l-4.169,1.58a12.237,12.237,0,0,0-2.834-1.58l-.584-4.187a.888.888,0,0,0-.834-.632H16.3a.888.888,0,0,0-.834.632L14.8,8.194a14.238,14.238,0,0,0-2.835,1.58L7.8,8.194a.793.793,0,0,0-1,.316L3.461,13.961a.932.932,0,0,0,.167,1.027L7.213,17.6c0,.553-.083,1.027-.083,1.58s.083,1.027.083,1.58l-3.5,2.607a.712.712,0,0,0-.167,1.027L6.88,29.84a.826.826,0,0,0,1,.316l4.169-1.58a12.235,12.235,0,0,0,2.834,1.58l.667,4.187a.8.8,0,0,0,.834.632h6.67a.888.888,0,0,0,.834-.632l.668-4.187a14.23,14.23,0,0,0,2.834-1.58l4.169,1.58a.793.793,0,0,0,1-.316l3.335-5.451a.93.93,0,0,0-.167-1.027Zm-12.423,3.95a5.654,5.654,0,0,1-5.836-5.53,5.654,5.654,0,0,1,5.836-5.53,5.654,5.654,0,0,1,5.836,5.53A5.654,5.654,0,0,1,19.636,24.705Z" transform="translate(-3.375 -3.375)" fill="#222"/>
</svg>
